trial_5_US.mot
nRows=120
nColumns=2

name trial_5_US.mot
datacolumns 2
datarows 120
range 7.210000 8.400000
endheader
time	med_gas_l
        7.2100000000	       84.8317800879	
        7.2200000000	       80.0411877869	
        7.2300000000	       76.3146229778	
        7.2400000000	       76.3024828514	
        7.2500000000	       73.0626619237	
        7.2600000000	       67.8722607288	
        7.2700000000	       66.1206056469	
        7.2800000000	       66.2576830415	
        7.2900000000	       66.6520754472	
        7.3000000000	       68.1048309840	
        7.3100000000	       69.5584516510	
        7.3200000000	       69.5779939340	
        7.3300000000	       70.5345642029	
        7.3400000000	       73.4988847677	
        7.3500000000	       76.1738124832	
        7.3600000000	       77.6559730094	
        7.3700000000	       78.2262732823	
        7.3800000000	       78.5371385368	
        7.3900000000	       78.9111935321	
        7.4000000000	       79.0653569594	
        7.4100000000	       79.1847696533	
        7.4200000000	       79.6506129157	
        7.4300000000	       80.2842584792	
        7.4400000000	       80.9556414618	
        7.4500000000	       81.7936677974	
        7.4600000000	       82.5266797356	
        7.4700000000	       82.7732165324	
        7.4800000000	       82.8045002919	
        7.4900000000	       82.8851068581	
        7.5000000000	       83.0285891729	
        7.5100000000	       83.4008814264	
        7.5200000000	       84.0802683438	
        7.5300000000	       84.3581543747	
        7.5400000000	       84.1740169296	
        7.5500000000	       84.5635104018	
        7.5600000000	       84.1241895717	
        7.5700000000	       81.0124501927	
        7.5800000000	       78.1348591279	
        7.5900000000	       77.1013936004	
        7.6000000000	       75.8388921581	
        7.6100000000	       74.1965241842	
        7.6200000000	       73.2550316709	
        7.6300000000	       73.2166679053	
        7.6400000000	       73.6110385702	
        7.6500000000	       73.3917079570	
        7.6600000000	       72.8432964812	
        7.6700000000	       72.8553185954	
        7.6800000000	       73.1672511084	
        7.6900000000	       73.5171375333	
        7.7000000000	       74.0603464066	
        7.7100000000	       74.5984978162	
        7.7200000000	       74.7634495710	
        7.7300000000	       74.5159138106	
        7.7400000000	       73.8452987502	
        7.7500000000	       72.7103566370	
        7.7600000000	       71.6936044696	
        7.7700000000	       71.5521084224	
        7.7800000000	       72.1188967169	
        7.7900000000	       72.9674883096	
        7.8000000000	       73.6704416491	
        7.8100000000	       74.2705441331	
        7.8200000000	       74.9229813461	
        7.8300000000	       75.0253646745	
        7.8400000000	       74.4116279307	
        7.8500000000	       73.8478878733	
        7.8600000000	       73.6759959678	
        7.8700000000	       73.9054609133	
        7.8800000000	       74.5183032904	
        7.8900000000	       75.2417835879	
        7.9000000000	       75.4274141107	
        7.9100000000	       74.5353030457	
        7.9200000000	       72.4998490550	
        7.9300000000	       70.7682379125	
        7.9400000000	       69.9985437117	
        7.9500000000	       69.1105260270	
        7.9600000000	       67.7743368164	
        7.9700000000	       66.2352003493	
        7.9800000000	       64.7117466657	
        7.9900000000	       63.5968014748	
        8.0000000000	       63.4960830457	
        8.0100000000	       64.1984054542	
        8.0200000000	       64.9775932308	
        8.0300000000	       65.2167756676	
        8.0400000000	       64.7375056120	
        8.0500000000	       63.9905106459	
        8.0600000000	       63.3978878771	
        8.0700000000	       63.0994403520	
        8.0800000000	       62.3351134390	
        8.0900000000	       61.0203520847	
        8.1000000000	       60.3763013443	
        8.1100000000	       60.6343356986	
        8.1200000000	       61.3804994557	
        8.1300000000	       62.4648525483	
        8.1400000000	       63.3267947678	
        8.1500000000	       62.8720894151	
        8.1600000000	       62.4175873445	
        8.1700000000	       64.1479440906	
        8.1800000000	       67.3598261228	
        8.1900000000	       70.7448350728	
        8.2000000000	       73.2539457138	
        8.2100000000	       74.6337013210	
        8.2200000000	       75.2594726080	
        8.2300000000	       76.0083841461	
        8.2400000000	       77.1905072705	
        8.2500000000	       78.1058904928	
        8.2600000000	       78.7127804453	
        8.2700000000	       79.4364239296	
        8.2800000000	       80.6331009392	
        8.2900000000	       82.1670339023	
        8.3000000000	       83.2282550722	
        8.3100000000	       83.6609071271	
        8.3200000000	       83.8500401012	
        8.3300000000	       84.4880621839	
        8.3400000000	       85.5897639742	
        8.3500000000	       86.1043666534	
        8.3600000000	       86.1094494491	
        8.3700000000	       86.2323040782	
        8.3800000000	       86.1489555749	
        8.3900000000	       85.8067709992	
        8.4000000000	       85.8671013142	
